<?xml version="1.0" encoding="UTF-8"?>
<svg id="Layer_2" data-name="Layer 2" xmlns="http://www.w3.org/2000/svg" viewBox="0 0 1148 1222.21">
  <defs>
    <style>
      .cls-1 {
        fill: #009ab8;
      }

      .cls-2 {
        fill: #43b8db;
      }
    </style>
  </defs>
  <path class="cls-1" d="M832.49,293.72l-112.87,104.51s-58.52-117.05-142.13-104.51c-83.61,12.54-125.41,108.69-125.41,108.69l-104.51-108.69c8-24.72,34.17-94.46,105.76-143.53,12.2-8.36,60.99-41.04,120.67-44.69,99.1-6.07,201.64,69.54,258.49,188.22Z"/>
  <path class="cls-2" d="M1019.92,860.56c-12.68,35.08-30.89,57.74-41.81,71.07-23.37,28.51-46.66,44.94-54.34,50.16-25,16.93-47.41,25.46-58.53,29.27-12.5,4.26-35.53,11.86-66.89,12.54-20.39.43-38.03-2.21-51.89-5.48,14.67-45.29,17.54-120.9,7.38-141.73-.29-.6-.6-1.16-.91-1.67,18.44,1.14,52.31-.98,78.87-26.69,24.7-23.91,28.51-54.13,29.26-62.71,2.51-28.67-8.32-50.32-12.55-58.52-7.22-13.96-18.72-26.04-41.8-50.16-10.16-10.66-18.9-19.19-25.08-25.08l91.96-87.79s108.69,62.71,137.95,133.78c13.84,33.61,20.19,56.94,21.28,79.25.41,7.95,2,42.44-12.92,83.77Z"/>
  <path class="cls-2" d="M394.74,943.47c1.27,26.75,7.78,54.53,16.88,78.82-23.43,2.16-55.89,2.59-93.27-4.91-13.67-2.76-44.43-9.11-75.25-25.08-47.65-24.71-111.19-80.64-125.41-167.21-1.96-12.08-13.17-86.78,29.26-150.49,19.19-28.8,45.77-50.04,66.89-66.89,24.08-19.23,46.24-32.78,62.71-41.81,29.26,29.98,58.52,59.9,87.78,89.89-7.69,7.32-18.06,17.81-29.26,31.34-11.37,13.76-20.73,25.04-29.26,41.81-8.16,15.97-15.96,32.35-16.13,54.55-.15,18.43-7.04,16.32,16.13,49.95,22.98,33.35,90.81,37.93,106.08,37.71-2.19.55-3.41.75-3.41.75-.79,1.37-1.54,2.8-2.21,4.26-9.53,19.28-12.75,42.85-11.53,67.31Z"/>
  <polygon class="cls-1" points="527.89 487.31 356.5 662.89 128.67 422.52 235.27 315.92 410.84 495.67 527.89 487.31"/>
  <polygon class="cls-1" points="1023 424.43 793.09 662.71 621.69 495.5 742.92 495.5 918.5 319.93 1023 424.43"/>
  <ellipse class="cls-1" cx="577.72" cy="942" rx="188.45" ry="175.04"/>
</svg>